<?xml version="1.0" encoding="UTF-8"?>
<svg id="Layer_1" data-name="Layer 1" xmlns="http://www.w3.org/2000/svg" viewBox="0 0 694 64">
  <g>
    <path d="M42.13,20.37c-1.24-1.91-2.99-3.37-5.26-4.39-2.27-1.02-4.98-1.53-8.12-1.53h-15.19v35.1h8.12v-9.68h7.07c3.14,0,5.85-.51,8.12-1.53,2.27-1.02,4.03-2.48,5.26-4.39,1.24-1.91,1.86-4.16,1.86-6.77s-.62-4.91-1.86-6.82ZM33.9,31.65c-1.24,1.07-3.11,1.6-5.62,1.6h-6.62v-12.19h6.62c2.51,0,4.38.54,5.62,1.6,1.24,1.07,1.85,2.58,1.85,4.51s-.62,3.39-1.85,4.46Z"/>
    <path d="M79.57,49.55l-7.84-11.25s.05-.02.07-.03c2.27-1,4.03-2.45,5.26-4.34,1.24-1.89,1.86-4.14,1.86-6.74s-.62-4.91-1.86-6.82c-1.24-1.91-2.99-3.37-5.26-4.39-2.27-1.02-4.98-1.53-8.12-1.53h-15.19v35.1h8.12v-9.78h7.07c.13,0,.25,0,.38,0l6.74,9.79h8.77ZM68.84,22.67c1.24,1.07,1.85,2.58,1.85,4.51s-.62,3.4-1.85,4.49c-1.24,1.09-3.11,1.63-5.62,1.63h-6.62v-12.24h6.62c2.51,0,4.38.54,5.62,1.6Z"/>
    <path d="M120.09,24.75c-.97-2.19-2.32-4.1-4.04-5.74-1.72-1.64-3.74-2.91-6.07-3.81-2.32-.9-4.87-1.35-7.65-1.35s-5.28.45-7.62,1.35c-2.34.9-4.38,2.17-6.12,3.81-1.74,1.64-3.08,3.56-4.04,5.77-.95,2.21-1.43,4.61-1.43,7.22s.48,5.01,1.43,7.22c.95,2.21,2.29,4.13,4.01,5.77,1.72,1.64,3.76,2.91,6.12,3.81,2.36.9,4.92,1.35,7.7,1.35s5.27-.45,7.6-1.35c2.32-.9,4.35-2.16,6.07-3.79,1.72-1.62,3.07-3.54,4.04-5.77.97-2.22,1.45-4.64,1.45-7.25s-.48-5.06-1.45-7.25ZM112.49,36.56c-.55,1.37-1.33,2.56-2.33,3.56-1,1-2.16,1.77-3.48,2.31-1.32.54-2.77.8-4.34.8s-3.03-.27-4.36-.8c-1.34-.53-2.5-1.3-3.49-2.31s-1.75-2.2-2.31-3.59c-.55-1.39-.83-2.9-.83-4.54s.28-3.19.83-4.56c.55-1.37,1.33-2.56,2.33-3.56,1-1,2.16-1.77,3.48-2.31,1.32-.53,2.77-.8,4.34-.8s3.03.27,4.36.8c1.34.53,2.5,1.3,3.49,2.31.99,1,1.75,2.19,2.31,3.56.55,1.37.83,2.89.83,4.56s-.28,3.19-.83,4.56Z"/>
    <path d="M126.87,14.45v6.52h12.34v16.7c0,3.88-1.65,5.82-4.96,5.82-1.24,0-2.39-.33-3.46-.98-1.07-.65-2.09-1.61-3.06-2.88l-4.51,5.42c1.27,1.64,2.9,2.9,4.89,3.79,1.99.89,4.17,1.33,6.54,1.33,4.15,0,7.29-1.07,9.43-3.21,2.14-2.14,3.21-5.38,3.21-9.73V14.45h-20.41Z"/>
    <polygon points="163.38 43.03 163.38 34.91 179.68 34.91 179.68 28.59 163.38 28.59 163.38 20.97 181.83 20.97 181.83 14.45 155.3 14.45 155.3 49.55 182.48 49.55 182.48 43.03 163.38 43.03"/>
    <path d="M205.43,50.15c-2.71,0-5.22-.44-7.55-1.33-2.32-.89-4.34-2.15-6.04-3.79-1.71-1.64-3.03-3.56-3.99-5.77-.95-2.21-1.43-4.63-1.43-7.27s.48-5.06,1.43-7.27c.95-2.21,2.29-4.13,4.01-5.77,1.72-1.64,3.74-2.9,6.04-3.79,2.31-.89,4.83-1.33,7.57-1.33,3.04,0,5.79.53,8.25,1.58,2.46,1.05,4.52,2.6,6.19,4.64l-5.22,4.81c-1.2-1.37-2.54-2.4-4.01-3.08-1.47-.68-3.08-1.03-4.81-1.03-1.64,0-3.14.27-4.51.8-1.37.53-2.56,1.3-3.56,2.31s-1.78,2.19-2.33,3.56-.83,2.89-.83,4.56.28,3.19.83,4.56,1.33,2.56,2.33,3.56,2.19,1.77,3.56,2.31c1.37.54,2.87.8,4.51.8,1.74,0,3.34-.34,4.81-1.03,1.47-.68,2.81-1.73,4.01-3.13l5.22,4.81c-1.67,2.04-3.74,3.59-6.19,4.66-2.46,1.07-5.22,1.6-8.3,1.6Z"/>
    <path d="M234.85,49.55v-28.48h-11.23v-6.62h30.59v6.62h-11.23v28.48h-8.12Z"/>
  </g>
  <polygon points="320.91 49.55 307.82 31.4 320.06 14.45 311.24 14.45 303.34 25.81 295.29 14.45 286.06 14.45 298.38 31.68 285.41 49.55 294.74 49.55 303.08 37.35 311.54 49.55 320.91 49.55"/>
  <g>
    <path d="M354.9,49.55V14.63h8.08v34.92h-8.08Z"/>
    <polygon points="395.31 14.63 395.31 35.82 377.95 14.63 371.26 14.63 371.26 49.55 379.24 49.55 379.24 28.36 396.65 49.55 403.29 49.55 403.29 14.63 395.31 14.63"/>
    <polygon points="435.61 14.63 435.61 35.82 418.25 14.63 411.57 14.63 411.57 49.55 419.55 49.55 419.55 28.36 436.96 49.55 443.59 49.55 443.59 14.63 435.61 14.63"/>
    <path d="M468.83,50.15c-2.76,0-5.31-.45-7.66-1.35-2.34-.9-4.37-2.16-6.09-3.79-1.71-1.63-3.04-3.54-3.99-5.74-.95-2.19-1.42-4.59-1.42-7.18s.47-4.99,1.42-7.18c.95-2.2,2.29-4.11,4.02-5.74,1.73-1.63,3.76-2.89,6.09-3.79,2.33-.9,4.85-1.35,7.58-1.35s5.3.45,7.61,1.35,4.32,2.16,6.04,3.79c1.71,1.63,3.05,3.53,4.02,5.71.96,2.18,1.45,4.58,1.45,7.21s-.48,5-1.45,7.21c-.97,2.21-2.3,4.12-4.02,5.74-1.71,1.61-3.72,2.87-6.04,3.77s-4.83,1.35-7.56,1.35ZM468.78,43.26c1.56,0,3-.27,4.32-.8,1.31-.53,2.47-1.3,3.47-2.29s1.77-2.18,2.32-3.54c.55-1.36.82-2.88.82-4.54s-.27-3.18-.82-4.54c-.55-1.36-1.31-2.54-2.29-3.54-.98-1-2.14-1.76-3.47-2.29-1.33-.53-2.78-.8-4.34-.8s-3,.27-4.31.8c-1.31.53-2.47,1.3-3.47,2.29s-1.77,2.18-2.32,3.54c-.55,1.36-.82,2.88-.82,4.54s.27,3.14.82,4.51c.55,1.38,1.31,2.57,2.29,3.57.98,1,2.14,1.76,3.47,2.29,1.33.53,2.78.8,4.34.8Z"/>
    <polygon points="518.37 14.63 507.59 39.57 496.97 14.63 488.24 14.63 503.3 49.55 511.28 49.55 526.4 14.63 518.37 14.63"/>
    <path d="M550.88,49.55h8.48l-15.61-34.92h-7.98l-15.56,34.92h8.28l3.11-7.48h16.19l3.1,7.48ZM534.14,35.93l5.56-13.36,5.54,13.36h-11.09Z"/>
    <path d="M567.13,49.55v-28.33h-11.17v-6.58h30.43v6.58h-11.17v28.33h-8.08Z"/>
    <path d="M591.19,49.55V14.63h8.08v34.92h-8.08Z"/>
    <path d="M641.52,24.88c-.97-2.18-2.3-4.08-4.02-5.71-1.71-1.63-3.72-2.89-6.04-3.79-2.31-.9-4.85-1.35-7.61-1.35s-5.25.45-7.58,1.35c-2.33.9-4.36,2.16-6.09,3.79-1.73,1.63-3.07,3.54-4.02,5.74-.95,2.19-1.42,4.59-1.42,7.18s.47,4.99,1.42,7.18c.95,2.19,2.28,4.11,3.99,5.74,1.71,1.63,3.74,2.89,6.09,3.79,2.34.9,4.9,1.35,7.66,1.35s5.25-.45,7.56-1.35c2.31-.9,4.32-2.15,6.04-3.77,1.71-1.61,3.05-3.52,4.02-5.74.96-2.21,1.45-4.61,1.45-7.21s-.48-5.03-1.45-7.21ZM633.97,36.63c-.55,1.36-1.32,2.54-2.32,3.54-1,1-2.15,1.76-3.47,2.29-1.31.53-2.75.8-4.32.8s-3.01-.27-4.34-.8c-1.33-.53-2.49-1.3-3.47-2.29-.98-1-1.75-2.19-2.29-3.57-.55-1.38-.82-2.88-.82-4.51s.27-3.18.82-4.54c.55-1.36,1.32-2.54,2.32-3.54,1-1,2.15-1.76,3.47-2.29,1.31-.53,2.75-.8,4.31-.8s3.01.27,4.34.8c1.33.53,2.49,1.3,3.47,2.29.98,1,1.75,2.18,2.29,3.54.55,1.36.82,2.88.82,4.54s-.27,3.18-.82,4.54Z"/>
    <polygon points="672.47 14.63 672.47 35.82 655.11 14.63 648.43 14.63 648.43 49.55 656.41 49.55 656.41 28.36 673.82 49.55 680.46 49.55 680.46 14.63 672.47 14.63"/>
  </g>
</svg>