<?xml version="1.0" encoding="UTF-8"?>
<svg id="Layer_1" data-name="Layer 1" xmlns="http://www.w3.org/2000/svg" viewBox="0 0 1876 576">
  <defs>
    <style>
      .cls-1 {
        fill: #b6f500;
      }
    </style>
  </defs>
  <g>
    <path class="cls-1" d="M898.31,284.67c-3.9-6.01-9.43-10.62-16.6-13.83-7.17-3.22-15.71-4.82-25.62-4.82h-47.91v110.68h25.62v-30.52h22.29c9.91,0,18.45-1.61,25.62-4.82,7.17-3.21,12.7-7.83,16.6-13.83,3.9-6.01,5.85-13.12,5.85-21.35s-1.95-15.5-5.85-21.5ZM872.38,320.25c-3.9,3.38-9.8,5.06-17.71,5.06h-20.87v-38.42h20.87c7.91,0,13.81,1.69,17.71,5.06,3.9,3.38,5.85,8.12,5.85,14.23s-1.95,10.7-5.85,14.07Z"/>
    <path class="cls-1" d="M1016.38,376.7l-24.73-35.49c.07-.03.15-.06.22-.09,7.17-3.16,12.7-7.72,16.6-13.68,3.9-5.95,5.85-13.04,5.85-21.27s-1.95-15.5-5.85-21.5c-3.9-6.01-9.43-10.62-16.6-13.83-7.17-3.22-15.71-4.82-25.62-4.82h-47.91v110.68h25.62v-30.83h22.29c.4,0,.79-.02,1.19-.02l21.26,30.86h27.67ZM982.55,291.95c3.9,3.38,5.85,8.12,5.85,14.23s-1.95,10.73-5.85,14.15c-3.9,3.43-9.8,5.14-17.71,5.14h-20.87v-38.58h20.87c7.91,0,13.81,1.69,17.71,5.06Z"/>
    <path class="cls-1" d="M1144.14,298.51c-3.06-6.9-7.3-12.94-12.73-18.11-5.43-5.16-11.81-9.17-19.13-12.02-7.33-2.85-15.37-4.27-24.11-4.27s-16.65,1.42-24.03,4.27c-7.38,2.85-13.81,6.85-19.29,12.02-5.48,5.17-9.72,11.23-12.73,18.18-3,6.96-4.51,14.55-4.51,22.77s1.5,15.81,4.51,22.77c3,6.96,7.22,13.02,12.65,18.18,5.43,5.17,11.86,9.17,19.29,12.02s15.52,4.27,24.27,4.27,16.63-1.42,23.96-4.27,13.7-6.82,19.13-11.94c5.43-5.11,9.67-11.17,12.73-18.18,3.06-7.01,4.59-14.63,4.59-22.85s-1.53-15.94-4.59-22.85ZM1120.18,335.75c-1.74,4.32-4.19,8.06-7.35,11.23-3.16,3.16-6.83,5.59-10.99,7.27-4.17,1.69-8.72,2.53-13.68,2.53s-9.54-.84-13.75-2.53c-4.22-1.68-7.88-4.11-10.99-7.27s-5.53-6.93-7.27-11.31c-1.74-4.37-2.61-9.14-2.61-14.31s.87-10.07,2.61-14.39c1.74-4.32,4.19-8.06,7.35-11.23,3.16-3.16,6.83-5.59,10.99-7.27,4.16-1.68,8.72-2.53,13.68-2.53s9.54.85,13.76,2.53c4.22,1.69,7.88,4.11,10.99,7.27,3.11,3.16,5.53,6.91,7.27,11.23,1.74,4.32,2.61,9.12,2.61,14.39s-.87,10.07-2.61,14.39Z"/>
    <path class="cls-1" d="M1165.53,266.01v20.56h38.9v52.65c0,12.23-5.22,18.34-15.65,18.34-3.9,0-7.54-1.03-10.91-3.08-3.38-2.06-6.59-5.08-9.64-9.09l-14.23,17.08c4,5.17,9.14,9.15,15.42,11.94,6.27,2.79,13.15,4.19,20.63,4.19,13.07,0,22.98-3.37,29.73-10.12,6.75-6.74,10.12-16.97,10.12-30.68v-71.79h-64.35Z"/>
    <polygon class="cls-1" points="1280.64 356.14 1280.64 330.53 1332.03 330.53 1332.03 310.6 1280.64 310.6 1280.64 286.57 1338.83 286.57 1338.83 266.01 1255.18 266.01 1255.18 376.7 1340.88 376.7 1340.88 356.14 1280.64 356.14"/>
    <path class="cls-1" d="M1413.25,378.6c-8.54,0-16.47-1.4-23.8-4.19-7.33-2.79-13.68-6.77-19.05-11.94-5.38-5.16-9.57-11.23-12.57-18.18-3-6.96-4.51-14.6-4.51-22.93s1.5-15.97,4.51-22.93c3-6.96,7.22-13.02,12.65-18.18,5.43-5.16,11.78-9.14,19.05-11.94,7.28-2.79,15.24-4.19,23.88-4.19,9.59,0,18.26,1.66,26.01,4.98,7.75,3.32,14.26,8.2,19.53,14.63l-16.44,15.18c-3.79-4.32-8.01-7.56-12.65-9.72-4.64-2.16-9.7-3.24-15.18-3.24-5.17,0-9.91.85-14.23,2.53-4.32,1.69-8.06,4.11-11.23,7.27s-5.61,6.91-7.35,11.23-2.61,9.12-2.61,14.39.87,10.07,2.61,14.39,4.19,8.06,7.35,11.23,6.91,5.59,11.23,7.27c4.32,1.69,9.06,2.53,14.23,2.53,5.48,0,10.54-1.08,15.18-3.24,4.64-2.16,8.86-5.45,12.65-9.88l16.44,15.18c-5.27,6.43-11.78,11.33-19.53,14.7-7.75,3.37-16.47,5.06-26.17,5.06Z"/>
    <path class="cls-1" d="M1506,376.7v-89.81h-35.42v-20.87h96.45v20.87h-35.42v89.81h-25.61Z"/>
    <polygon class="cls-1" points="1835.19 376.7 1793.9 319.47 1832.51 266.01 1804.68 266.01 1779.77 301.85 1754.4 266.01 1725.3 266.01 1764.13 320.34 1723.25 376.7 1752.66 376.7 1778.95 338.23 1805.63 376.7 1835.19 376.7"/>
    <path class="cls-1" d="M808.13,534.9v-110.1h25.48v110.1h-25.48Z"/>
    <polygon class="cls-1" points="935.54 424.8 935.54 491.6 880.8 424.8 859.72 424.8 859.72 534.9 884.89 534.9 884.89 468.08 939.78 534.9 960.71 534.9 960.71 424.8 935.54 424.8"/>
    <polygon class="cls-1" points="1062.63 424.8 1062.63 491.6 1007.89 424.8 986.82 424.8 986.82 534.9 1011.99 534.9 1011.99 468.08 1066.88 534.9 1087.8 534.9 1087.8 424.8 1062.63 424.8"/>
    <path class="cls-1" d="M1167.39,536.79c-8.71,0-16.75-1.42-24.14-4.25-7.39-2.83-13.79-6.82-19.19-11.95-5.4-5.14-9.59-11.17-12.58-18.09-2.99-6.92-4.49-14.47-4.49-22.65s1.5-15.73,4.49-22.65c2.99-6.92,7.21-12.95,12.66-18.09,5.45-5.14,11.85-9.12,19.19-11.95,7.34-2.83,15.31-4.25,23.9-4.25s16.7,1.42,23.99,4.25c7.29,2.83,13.63,6.82,19.03,11.95,5.4,5.14,9.62,11.14,12.66,18.01,3.04,6.87,4.56,14.45,4.56,22.73s-1.52,15.76-4.56,22.73c-3.05,6.97-7.26,13-12.66,18.09-5.4,5.09-11.74,9.05-19.03,11.88-7.29,2.83-15.23,4.25-23.83,4.25ZM1167.23,515.08c4.93,0,9.46-.84,13.61-2.52,4.14-1.68,7.78-4.09,10.93-7.24s5.58-6.87,7.31-11.17c1.73-4.3,2.6-9.07,2.6-14.32s-.87-10.01-2.6-14.31c-1.73-4.3-4.14-8.02-7.23-11.17-3.1-3.15-6.74-5.56-10.93-7.24-4.19-1.68-8.75-2.52-13.69-2.52s-9.46.84-13.61,2.52c-4.14,1.68-7.78,4.09-10.93,7.24-3.15,3.15-5.59,6.87-7.31,11.17-1.73,4.3-2.6,9.07-2.6,14.31s.87,9.89,2.6,14.24c1.73,4.35,4.14,8.1,7.23,11.25,3.09,3.15,6.74,5.56,10.93,7.24,4.19,1.68,8.75,2.52,13.68,2.52Z"/>
    <polygon class="cls-1" points="1323.58 424.8 1289.59 503.44 1256.1 424.8 1228.57 424.8 1276.08 534.9 1301.24 534.9 1348.9 424.8 1323.58 424.8"/>
    <path class="cls-1" d="M1426.08,534.9h26.74l-49.23-110.1h-25.17l-49.07,110.1h26.11l9.81-23.59h51.04l9.77,23.59ZM1373.31,491.96l17.52-42.14,17.46,42.14h-34.98Z"/>
    <path class="cls-1" d="M1477.33,534.9v-89.34h-35.23v-20.76h95.95v20.76h-35.23v89.34h-25.48Z"/>
    <path class="cls-1" d="M1553.2,534.9v-110.1h25.48v110.1h-25.48Z"/>
    <path class="cls-1" d="M1711.92,457.12c-3.05-6.87-7.26-12.87-12.66-18.01-5.4-5.14-11.74-9.12-19.03-11.95-7.29-2.83-15.29-4.25-23.99-4.25s-16.57,1.42-23.9,4.25c-7.34,2.83-13.74,6.82-19.19,11.95-5.45,5.14-9.67,11.17-12.66,18.09-2.99,6.92-4.49,14.47-4.49,22.65s1.5,15.73,4.49,22.65c2.99,6.92,7.18,12.95,12.58,18.09,5.4,5.14,11.8,9.12,19.19,11.95,7.39,2.83,15.44,4.25,24.14,4.25s16.54-1.42,23.83-4.25c7.29-2.83,13.63-6.79,19.03-11.88,5.4-5.08,9.62-11.11,12.66-18.09,3.04-6.97,4.56-14.55,4.56-22.73s-1.52-15.86-4.56-22.73ZM1688.08,494.16c-1.73,4.3-4.17,8.02-7.31,11.17-3.15,3.15-6.79,5.56-10.93,7.24-4.15,1.68-8.68,2.52-13.61,2.52s-9.49-.84-13.68-2.52c-4.2-1.68-7.84-4.09-10.93-7.24-3.1-3.15-5.51-6.89-7.23-11.25-1.73-4.35-2.6-9.1-2.6-14.24s.87-10.01,2.6-14.31c1.73-4.3,4.17-8.02,7.31-11.17,3.15-3.15,6.79-5.56,10.93-7.24,4.14-1.68,8.68-2.52,13.61-2.52s9.49.84,13.69,2.52c4.2,1.68,7.84,4.09,10.93,7.24,3.09,3.15,5.5,6.87,7.23,11.17,1.73,4.3,2.6,9.07,2.6,14.31s-.87,10.02-2.6,14.32Z"/>
    <polygon class="cls-1" points="1809.5 424.8 1809.5 491.6 1754.77 424.8 1733.69 424.8 1733.69 534.9 1758.86 534.9 1758.86 468.08 1813.75 534.9 1834.67 534.9 1834.67 424.8 1809.5 424.8"/>
  </g>
  <g>
    <polygon class="cls-1" points="207.11 534.94 40.81 534.94 40.81 368.64 374.2 287.07 207.11 534.94"/>
    <polygon class="cls-1" points="541.29 534.94 707.59 534.94 707.59 368.64 374.19 287.07 541.29 534.94"/>
    <polygon class="cls-1" points="207.11 39.21 40.81 39.21 40.81 205.51 374.2 287.08 207.11 39.21"/>
    <polygon class="cls-1" points="541.29 39.21 707.59 39.21 707.59 205.51 374.19 287.08 541.29 39.21"/>
  </g>
</svg>